<?xml version="1.0" encoding="UTF-8" standalone="no"?>
<svg width="200px" height="201px" viewBox="0 0 200 201" version="1.1" xmlns="http://www.w3.org/2000/svg" xmlns:xlink="http://www.w3.org/1999/xlink" xmlns:sketch="http://www.bohemiancoding.com/sketch/ns">
    <!-- Generator: Sketch 3.3.2 (12043) - http://www.bohemiancoding.com/sketch -->
    <title>Oval 1 Copy</title>
    <desc>Created with Sketch.</desc>
    <defs></defs>
    <g id="Page-1" stroke="none" stroke-width="1" fill="none" fill-rule="evenodd" sketch:type="MSPage">
        <path d="M137.179525,190.414763 C170.318887,176.225929 193,141.707101 193,101.799433 C193,77.7427079 184.75815,55.5922994 170.951852,38.668682 L170.951852,38.668682 L79.7782705,139.927202 C92.0549154,162.890949 112.446268,180.962989 137.179525,190.414763 Z M127.514909,193.879957 C119.866901,196.111245 111.77485,197.304791 103.366211,197.304791 C94.6310671,197.304791 86.113767,196.016756 78,193.615351 L78,157.190043 L78.0193372,157.29864 C90.5186587,173.760654 107.656095,186.585846 127.514909,193.879957 Z M141.217766,191.867948 C175.884154,176.349092 200,141.857514 200,101.799433 C200,76.1927963 190.145665,52.8607707 173.980367,35.3051745 L173.980367,35.3051745 L198.265315,8.33400802 C199.63594,6.81177428 199.511548,4.46203333 197.985469,3.08794528 L195.222258,0.599938788 L168.734392,30.0176943 C150.815143,13.2535097 126.622487,2.97216749 100,2.97216749 C44.771525,2.97216749 0,47.2186416 0,101.799433 C0,156.380225 44.771525,200.626699 100,200.626699 C111.214245,200.626699 121.997349,198.802414 132.062037,195.437752 C142.648632,198.80695 153.938806,200.626699 165.659047,200.626699 C177.654255,200.626699 189.198977,198.720563 200,195.198066 C192.478788,196.811844 184.669364,197.661881 176.659047,197.661881 C164.255551,197.661881 152.333729,195.623776 141.217766,191.867948 Z M165.992052,33.0633705 C149.990166,16.3845588 128.041293,6.04797312 103.366211,6.04797312 C94.6310671,6.04797312 86.113767,7.34336151 78,9.75693102 L78,9.75693102 L78,130.788445 L165.992052,33.0633705 L165.992052,33.0633705 Z M68.9999994,12.9561786 C34.6936686,27.202437 9.58886719,61.8757962 9.58886719,101.799433 C9.58886719,141.723071 34.6936686,176.253555 68.9999994,190.431787 L69,12.9561733 L68.9999994,12.9561786 Z" id="Oval-1-Copy" fill="#FCFDFF" sketch:type="MSShapeGroup"></path>
    </g>
</svg>