<?xml version="1.0" encoding="UTF-8" standalone="no"?>
<svg width="200px" height="200px" viewBox="0 0 200 231" version="1.1" xmlns="http://www.w3.org/2000/svg" xmlns:xlink="http://www.w3.org/1999/xlink" xmlns:sketch="http://www.bohemiancoding.com/sketch/ns">
    <!-- Generator: Sketch 3.3.2 (12043) - http://www.bohemiancoding.com/sketch -->
    <title>Slice 1</title>
    <desc>Created with Sketch.</desc>
    <defs></defs>
    <g id="Page-1" stroke="none" stroke-width="1" fill="none" fill-rule="evenodd" sketch:type="MSPage">
        <g id="ARCHITECTS-+-path100" sketch:type="MSLayerGroup" transform="translate(0.000000, -1.000000)" fill="#fff">
            <path d="M82.5531116,66.1994385 C92.4687382,41.8420584 109.789,23.2304322 133.198601,13.3976187 C148.207781,20.3476138 162.649651,31.0697062 172.657834,46.01028 C183.189067,61.7315576 191.24469,82.4705563 189.746839,106.577473 C188.286522,130.072138 179.393588,147.520677 168.308094,161.553409 L82.5531116,66.1994385 L82.5531116,66.1994385 Z M50.861259,180.810815 C40.3807163,173.364795 31.5276839,164.168103 24.4509647,153.167527 C14.1209202,137.108508 6.71985048,112.295315 10.1587996,87.6309742 C12.2646426,72.5254093 17.809085,59.2104722 25.0724907,48.1844233 C35.8766842,31.7837562 49.5340588,19.5427163 69.5597744,11.3750496 L69.5597744,190.742612 C69.5597744,190.742612 56.3073334,184.679916 50.861259,180.810815 L50.861259,180.810815 Z M70.7465258,191.197254 L70.7465258,182.052963 L70.7465258,10.9004442 C70.7465258,10.9004442 72.3771974,10.1385457 73.9543129,9.58897488 L73.9543129,192.468499 C72.7574718,192.206625 71.7966491,191.751984 70.7465258,191.197254 L70.7465258,191.197254 Z M31.597545,35.1390382 C18.78554,49.5862012 8.2893516,69.5485238 6.74107923,94.4640691 C4.86916939,124.579798 15.7181881,146.377674 28.8010144,163.727875 C39.7605625,178.261858 57.1405684,190.292146 76.3392777,196.341102 C77.5625269,196.726369 85.9221323,198.786333 82.8638746,198.204257 C52.8840301,192.317895 30.8077631,176.646163 16.683531,154.409676 C7.21381567,139.501068 -0.477824131,119.641111 1.14832733,95.396118 C2.89612032,69.3359536 13.5386768,48.8659546 27.2475088,33.8969034 C41.3574942,18.4895104 60.3441716,7.44411725 84.417286,3.76876759 C61.6765781,8.91469087 45.1058341,19.9063353 31.597545,35.1390382 L31.597545,35.1390382 Z M108.685724,200.396909 C118.705342,200.396909 123.141584,198.312024 126.67352,197.272747 C140.609021,193.206702 152.028283,187.118815 162.404673,178.636483 C163.631985,177.633442 168.151098,173.672201 168.308094,173.666812 C169.215764,173.637042 174.012949,179.574324 174.832906,180.500176 C181.094847,187.570628 187.068089,195.163749 194.096579,201 C155.480577,156.570402 76.3392777,69.6159859 76.3392777,69.6159859 L76.3392777,59.3660742 C76.3392777,59.3660742 79.9100656,52.2370918 81.9318547,49.1161624 C96.3613475,26.8415528 117.763366,9.47367777 147.801772,4.07890726 C117.735115,12.2791061 97.2166856,29.8754065 83.4855351,55.6385923 L77.9953888,65.5840087 C77.9953888,65.5840087 78.0238418,66.9868508 78.0241109,66.9868508 C78.0241109,66.9868508 151.089536,148.888643 184.154181,184.848706 C189.252174,190.392908 193.829538,196.42085 199.689237,201 C201.046774,196.252329 196.02035,192.80756 192.543437,188.886597 C185.507144,180.952528 177.418831,171.93392 170.793659,164.65952 C183.714808,147.126923 194.851558,126.162759 193.164828,95.7064867 C191.973436,74.2039865 184.408442,58.0312195 174.832906,43.8361367 C165.262751,29.6480453 152.268014,18.3099977 137.20852,11.1751016 L139.078345,10.2285849 C154.330216,16.4768827 167.808855,27.2086607 178.561255,41.3513284 C191.218995,58.0003173 200.384889,78.7465768 198.757352,108.130259 C197.342236,133.67034 186.126114,150.765269 174.522143,166.833717 C181.539064,160.679958 186.752483,151.622824 191.299981,141.985634 C195.689542,132.684408 198.954168,120.895652 199.689237,109.062308 C200.909554,89.4289302 197.092281,71.2217262 190.057333,57.1919309 C179.154933,35.4488949 161.664492,19.4655956 140.344401,9.35972775 C144.46302,7.07513686 156.190489,3.45810257 156.190489,3.45810257 C170.393165,0.587380989 188.535132,3.02649614 200,5.63224586 C194.851289,2.74834978 187.940378,2.27643853 181.357852,1.59435489 C158.984935,-0.723832334 137.845383,4.02273376 123.566428,10.9120022 C113.131787,15.9469255 104.325759,21.4454352 96.535025,28.9270039 C88.8503,36.3075412 82.3162053,44.9791124 77.2994008,54.6813258 L77.2677595,8.52984181 C79.7621774,7.24686341 84.4549542,5.56774737 96.5927381,2.32454298 C107.58312,1.69057726 115.276455,3.01951823 123.566428,4.70023731 C118.521305,1.91900267 108.179758,0.47100621 94.04919,1.28368986 C65.9536186,3.1667817 45.4044356,14.5034957 29.4225135,30.480356 C13.6512913,46.2462356 2.06288535,67.237328 0.216011436,94.7741683 C-1.02775356,113.323276 3.24788789,130.616361 9.22651056,143.228052 C18.1483817,162.048732 31.2603739,175.368451 48.3754913,186.401492 C61.3428644,194.760835 77.9223932,200.439612 97.156551,200.378724 C97.156551,200.378724 94.3245718,199.969075 85.6602035,195.719691 C82.3349049,195.109461 77.2677595,193.515185 77.2677595,193.515185 L77.2712572,73.0325334 C77.2712572,73.0325334 134.334837,136.292578 163.025661,167.455128 C151.978372,179.188114 137.900674,187.89312 120.770368,193.545629 C119.679873,194.720558 116.225426,197.348588 114.161341,198.369275 C131.407611,195.095182 149.070115,185.423911 160.851261,174.598861 C161.476823,174.023655 166.115129,168.309989 167.375805,172.114026 C167.972308,173.913733 158.285247,181.197832 156.501252,182.36414 C143.417323,190.916925 126.845045,197.972828 108.685724,200.396909 L108.685724,200.396909 Z" id="CKD" sketch:type="MSShapeGroup" transform="translate(100.000000, 101.000000) scale(1, -1) translate(-100.000000, -101.000000) "></path>
        </g>
    </g>
</svg>
