<?xml version="1.0" encoding="UTF-8" standalone="no"?>
<svg width="200px" height="231px" viewBox="0 0 200 231" version="1.1" xmlns="http://www.w3.org/2000/svg" xmlns:xlink="http://www.w3.org/1999/xlink" xmlns:sketch="http://www.bohemiancoding.com/sketch/ns">
    <!-- Generator: Sketch 3.3.2 (12043) - http://www.bohemiancoding.com/sketch -->
    <title>Slice 1</title>
    <desc>Created with Sketch.</desc>
    <defs></defs>
    <g id="Page-1" stroke="none" stroke-width="1" fill="none" fill-rule="evenodd" sketch:type="MSPage">
        <g id="ARCHITECTS-+-path100" sketch:type="MSLayerGroup" transform="translate(0.000000, -1.000000)" fill="#fff">
            <path class="ckd" d="M82.5531116,66.1994385 C92.4687382,41.8420584 109.789,23.2304322 133.198601,13.3976187 C148.207781,20.3476138 162.649651,31.0697062 172.657834,46.01028 C183.189067,61.7315576 191.24469,82.4705563 189.746839,106.577473 C188.286522,130.072138 179.393588,147.520677 168.308094,161.553409 L82.5531116,66.1994385 L82.5531116,66.1994385 Z M50.861259,180.810815 C40.3807163,173.364795 31.5276839,164.168103 24.4509647,153.167527 C14.1209202,137.108508 6.71985048,112.295315 10.1587996,87.6309742 C12.2646426,72.5254093 17.809085,59.2104722 25.0724907,48.1844233 C35.8766842,31.7837562 49.5340588,19.5427163 69.5597744,11.3750496 L69.5597744,190.742612 C69.5597744,190.742612 56.3073334,184.679916 50.861259,180.810815 L50.861259,180.810815 Z M70.7465258,191.197254 L70.7465258,182.052963 L70.7465258,10.9004442 C70.7465258,10.9004442 72.3771974,10.1385457 73.9543129,9.58897488 L73.9543129,192.468499 C72.7574718,192.206625 71.7966491,191.751984 70.7465258,191.197254 L70.7465258,191.197254 Z M31.597545,35.1390382 C18.78554,49.5862012 8.2893516,69.5485238 6.74107923,94.4640691 C4.86916939,124.579798 15.7181881,146.377674 28.8010144,163.727875 C39.7605625,178.261858 57.1405684,190.292146 76.3392777,196.341102 C77.5625269,196.726369 85.9221323,198.786333 82.8638746,198.204257 C52.8840301,192.317895 30.8077631,176.646163 16.683531,154.409676 C7.21381567,139.501068 -0.477824131,119.641111 1.14832733,95.396118 C2.89612032,69.3359536 13.5386768,48.8659546 27.2475088,33.8969034 C41.3574942,18.4895104 60.3441716,7.44411725 84.417286,3.76876759 C61.6765781,8.91469087 45.1058341,19.9063353 31.597545,35.1390382 L31.597545,35.1390382 Z M108.685724,200.396909 C118.705342,200.396909 123.141584,198.312024 126.67352,197.272747 C140.609021,193.206702 152.028283,187.118815 162.404673,178.636483 C163.631985,177.633442 168.151098,173.672201 168.308094,173.666812 C169.215764,173.637042 174.012949,179.574324 174.832906,180.500176 C181.094847,187.570628 187.068089,195.163749 194.096579,201 C155.480577,156.570402 76.3392777,69.6159859 76.3392777,69.6159859 L76.3392777,59.3660742 C76.3392777,59.3660742 79.9100656,52.2370918 81.9318547,49.1161624 C96.3613475,26.8415528 117.763366,9.47367777 147.801772,4.07890726 C117.735115,12.2791061 97.2166856,29.8754065 83.4855351,55.6385923 L77.9953888,65.5840087 C77.9953888,65.5840087 78.0238418,66.9868508 78.0241109,66.9868508 C78.0241109,66.9868508 151.089536,148.888643 184.154181,184.848706 C189.252174,190.392908 193.829538,196.42085 199.689237,201 C201.046774,196.252329 196.02035,192.80756 192.543437,188.886597 C185.507144,180.952528 177.418831,171.93392 170.793659,164.65952 C183.714808,147.126923 194.851558,126.162759 193.164828,95.7064867 C191.973436,74.2039865 184.408442,58.0312195 174.832906,43.8361367 C165.262751,29.6480453 152.268014,18.3099977 137.20852,11.1751016 L139.078345,10.2285849 C154.330216,16.4768827 167.808855,27.2086607 178.561255,41.3513284 C191.218995,58.0003173 200.384889,78.7465768 198.757352,108.130259 C197.342236,133.67034 186.126114,150.765269 174.522143,166.833717 C181.539064,160.679958 186.752483,151.622824 191.299981,141.985634 C195.689542,132.684408 198.954168,120.895652 199.689237,109.062308 C200.909554,89.4289302 197.092281,71.2217262 190.057333,57.1919309 C179.154933,35.4488949 161.664492,19.4655956 140.344401,9.35972775 C144.46302,7.07513686 156.190489,3.45810257 156.190489,3.45810257 C170.393165,0.587380989 188.535132,3.02649614 200,5.63224586 C194.851289,2.74834978 187.940378,2.27643853 181.357852,1.59435489 C158.984935,-0.723832334 137.845383,4.02273376 123.566428,10.9120022 C113.131787,15.9469255 104.325759,21.4454352 96.535025,28.9270039 C88.8503,36.3075412 82.3162053,44.9791124 77.2994008,54.6813258 L77.2677595,8.52984181 C79.7621774,7.24686341 84.4549542,5.56774737 96.5927381,2.32454298 C107.58312,1.69057726 115.276455,3.01951823 123.566428,4.70023731 C118.521305,1.91900267 108.179758,0.47100621 94.04919,1.28368986 C65.9536186,3.1667817 45.4044356,14.5034957 29.4225135,30.480356 C13.6512913,46.2462356 2.06288535,67.237328 0.216011436,94.7741683 C-1.02775356,113.323276 3.24788789,130.616361 9.22651056,143.228052 C18.1483817,162.048732 31.2603739,175.368451 48.3754913,186.401492 C61.3428644,194.760835 77.9223932,200.439612 97.156551,200.378724 C97.156551,200.378724 94.3245718,199.969075 85.6602035,195.719691 C82.3349049,195.109461 77.2677595,193.515185 77.2677595,193.515185 L77.2712572,73.0325334 C77.2712572,73.0325334 134.334837,136.292578 163.025661,167.455128 C151.978372,179.188114 137.900674,187.89312 120.770368,193.545629 C119.679873,194.720558 116.225426,197.348588 114.161341,198.369275 C131.407611,195.095182 149.070115,185.423911 160.851261,174.598861 C161.476823,174.023655 166.115129,168.309989 167.375805,172.114026 C167.972308,173.913733 158.285247,181.197832 156.501252,182.36414 C143.417323,190.916925 126.845045,197.972828 108.685724,200.396909 L108.685724,200.396909 Z" id="CKD" sketch:type="MSShapeGroup" transform="translate(100.000000, 101.000000) scale(1, -1) translate(-100.000000, -101.000000) "></path>
            <path d="M5.75300021,223.486 L4.03700021,228.192 C3.98499995,228.330667 3.93733376,228.451999 3.89400021,228.556 C3.85066666,228.660001 3.82900021,228.772666 3.82900021,228.894 C3.82900021,229.206002 3.9199993,229.474666 4.10200021,229.7 C4.28400112,229.925334 4.50499891,230.111666 4.76500021,230.259 C5.02500151,230.406334 5.29366549,230.523333 5.57100021,230.61 C5.84833493,230.696667 6.08233259,230.757333 6.27300021,230.792 L6.27300021,231.104 C5.75299761,231.069333 5.23300281,231.043333 4.71300021,231.026 C4.19299761,231.008667 3.66433623,231 3.12700021,231 C2.60699761,231 2.10000268,231.008667 1.60600021,231.026 C1.11199774,231.043333 0.587669655,231.069333 0.0330002146,231.104 L0.0330002146,230.792 C0.570336235,230.670666 1.0166651,230.484335 1.37200021,230.233 C1.72733532,229.981665 2.02633233,229.682668 2.26900021,229.336 C2.51166809,228.989332 2.7239993,228.608002 2.90600021,228.192 C3.08800112,227.775998 3.26566601,227.342669 3.43900021,226.892 L7.93700021,215.842 C7.98900047,215.720666 8.03666666,215.608001 8.08000021,215.504 C8.12333376,215.399999 8.14500021,215.304667 8.14500021,215.218 C8.14500021,215.131333 8.11466718,215.001334 8.05400021,214.828 C7.99333324,214.654666 7.91966731,214.498667 7.83300021,214.36 C8.28366913,214.273333 8.67366523,214.160667 9.00300021,214.022 C9.33233519,213.883333 9.69633155,213.736001 10.0950002,213.58 L15.5030002,228.452 C15.7456681,229.128003 16.0836647,229.660998 16.5170002,230.051 C16.9503357,230.441002 17.5916626,230.687999 18.4410002,230.792 L18.4410002,231.104 C17.7476634,231.069333 17.0673369,231.043333 16.4000002,231.026 C15.7326635,231.008667 15.0350039,231 14.3070002,231 L13.0850002,231 C12.7383318,231 12.4263349,231.004333 12.1490002,231.013 C11.8716655,231.021667 11.6073348,231.034667 11.3560002,231.052 C11.1046656,231.069333 10.8316684,231.086667 10.5370002,231.104 L10.5370002,230.792 C11.2650039,230.705333 11.8759977,230.519001 12.3700002,230.233 C12.8640027,229.946999 13.1110002,229.561336 13.1110002,229.076 C13.1110002,228.937333 13.0806672,228.798667 13.0200002,228.66 C12.9593332,228.521333 12.9116671,228.391334 12.8770002,228.27 L11.1870002,223.486 L5.75300021,223.486 Z M8.56100021,216.102 L6.01300021,222.706 L10.9010002,222.706 L8.56100021,216.102 Z M40.6270002,231 L35.9470002,231 C34.8549947,229.803994 33.8453381,228.577673 32.9180002,227.321 C31.9906622,226.064327 31.1630038,224.734007 30.4350002,223.33 C30.261666,223.33 30.0406682,223.312667 29.7720002,223.278 C29.5033322,223.243333 29.2260016,223.204334 28.9400002,223.161 C28.6539987,223.117666 28.3766682,223.065667 28.1080002,223.005 C27.8393322,222.944333 27.6183344,222.888 27.4450002,222.836 L27.4450002,226.892 C27.4450002,227.620004 27.4666666,228.222331 27.5100002,228.699 C27.5533337,229.175669 27.6659993,229.561332 27.8480002,229.856 C28.0300011,230.150668 28.3029983,230.367333 28.6670002,230.506 C29.031002,230.644667 29.5336636,230.74 30.1750002,230.792 L30.1750002,231.104 C29.5163302,231.069333 28.8576701,231.043333 28.1990002,231.026 C27.5403302,231.008667 26.8816701,231 26.2230002,231 C25.5816636,231 24.9490033,231.008667 24.3250002,231.026 C23.700997,231.043333 23.0770033,231.069333 22.4530002,231.104 L22.4530002,230.792 C23.0770033,230.74 23.5623318,230.644667 23.9090002,230.506 C24.2556686,230.367333 24.5199993,230.150668 24.7020002,229.856 C24.8840011,229.561332 24.9966666,229.175669 25.0400002,228.699 C25.0833337,228.222331 25.1050002,227.620004 25.1050002,226.892 L25.1050002,218.208 C25.1050002,217.479996 25.0833337,216.877669 25.0400002,216.401 C24.9966666,215.924331 24.8840011,215.538668 24.7020002,215.244 C24.5199993,214.949332 24.2556686,214.732667 23.9090002,214.594 C23.5623318,214.455333 23.0770033,214.36 22.4530002,214.308 L22.4530002,213.996 C23.0076696,214.030667 23.5623307,214.056667 24.1170002,214.074 C24.6716696,214.091333 25.2263307,214.1 25.7810002,214.1 C26.023668,214.1 26.3269983,214.087 26.6910002,214.061 C27.055002,214.035 27.4406648,214.004667 27.8480002,213.97 C28.2553355,213.935333 28.6669981,213.905 29.0830002,213.879 C29.4990022,213.853 29.8716652,213.84 30.2010002,213.84 C30.9463372,213.84 31.7089963,213.935332 32.4890002,214.126 C33.2690041,214.316668 33.970997,214.619998 34.5950002,215.036 C35.2190033,215.452002 35.7303315,215.980663 36.1290002,216.622 C36.5276688,217.263337 36.7270002,218.025996 36.7270002,218.91 C36.7270002,219.51667 36.6186679,220.053998 36.4020002,220.522 C36.1853324,220.990002 35.895002,221.397332 35.5310002,221.744 C35.1669983,222.090668 34.7380026,222.376666 34.2440002,222.602 C33.7499977,222.827334 33.2343362,222.991999 32.6970002,223.096 C32.939668,223.512002 33.2256652,223.979997 33.5550002,224.5 C33.8843351,225.020003 34.2526648,225.548664 34.6600002,226.086 C35.0673355,226.623336 35.5006645,227.156331 35.9600002,227.685 C36.4193358,228.213669 36.9046643,228.690331 37.4160002,229.115 C37.9273361,229.539669 38.4516641,229.894999 38.9890002,230.181 C39.5263362,230.467001 40.0723307,230.636 40.6270002,230.688 L40.6270002,231 Z M27.4450002,221.952 C28.2250041,222.246668 29.030996,222.394 29.8630002,222.394 C31.2150069,222.394 32.2636631,222.082003 33.0090002,221.458 C33.7543372,220.833997 34.1270002,219.820007 34.1270002,218.416 C34.1270002,217.843997 34.0186679,217.328336 33.8020002,216.869 C33.5853324,216.409664 33.2863354,216.011002 32.9050002,215.673 C32.5236649,215.334998 32.0860026,215.075001 31.5920002,214.893 C31.0979977,214.710999 30.5823362,214.62 30.0450002,214.62 C29.6116647,214.62 29.1870022,214.637333 28.7710002,214.672 C28.3549981,214.706667 27.9476688,214.784666 27.5490002,214.906 C27.5143333,215.738004 27.4883336,216.578662 27.4710002,217.428 C27.4536667,218.277338 27.4450002,219.195995 27.4450002,220.184 L27.4450002,221.952 Z M59.4850001,219.924 C59.2596657,219.143996 58.9606686,218.42467 58.5880001,217.766 C58.2153316,217.10733 57.773336,216.535336 57.2620001,216.05 C56.7506642,215.564664 56.1613368,215.187668 55.4940001,214.919 C54.8266634,214.650332 54.0770043,214.516 53.2450001,214.516 C52.1703281,214.516 51.2603372,214.723998 50.5150001,215.14 C49.7696631,215.556002 49.1586692,216.11933 48.6820001,216.83 C48.2053311,217.54067 47.8586679,218.363995 47.6420001,219.3 C47.4253324,220.236005 47.3170001,221.223995 47.3170001,222.264 C47.3170001,223.304005 47.4556654,224.296329 47.7330001,225.241 C48.0103348,226.185671 48.4219974,227.01333 48.9680001,227.724 C49.5140028,228.43467 50.1986627,229.002331 51.0220001,229.427 C51.8453376,229.851669 52.7943281,230.064 53.8690001,230.064 C55.4810082,230.064 56.8719943,229.656671 58.0420001,228.842 C59.212006,228.027329 60.2476623,226.918007 61.1490001,225.514 L61.7990001,226.034 C61.2096638,226.918004 60.6203364,227.697997 60.0310001,228.374 C59.4416638,229.050003 58.8003369,229.621998 58.1070001,230.09 C57.4136633,230.558002 56.6596709,230.913332 55.8450001,231.156 C55.0303294,231.398668 54.1116719,231.52 53.0890001,231.52 C51.927661,231.52 50.8270053,231.299002 49.7870001,230.857 C48.7469949,230.414998 47.837004,229.799671 47.0570001,229.011 C46.2769962,228.222329 45.6573357,227.277672 45.1980001,226.177 C44.7386645,225.076328 44.5090001,223.86734 44.5090001,222.55 C44.5090001,221.23266 44.7386645,220.023672 45.1980001,218.923 C45.6573357,217.822328 46.2769962,216.877671 47.0570001,216.089 C47.837004,215.300329 48.7469949,214.685002 49.7870001,214.243 C50.8270053,213.800998 51.927661,213.58 53.0890001,213.58 C53.7303367,213.58 54.3283307,213.619 54.8830001,213.697 C55.4376696,213.775 55.9706642,213.857333 56.4820001,213.944 C56.993336,214.030667 57.4873311,214.117333 57.9640001,214.204 C58.4406692,214.290667 58.9129978,214.342667 59.3810001,214.36 C59.3810001,214.724002 59.394,215.148664 59.4200001,215.634 C59.4460002,216.119336 59.4849999,216.617664 59.5370001,217.129 C59.5890004,217.640336 59.6409999,218.142998 59.6930001,218.637 C59.7450004,219.131002 59.7969999,219.559998 59.8490001,219.924 L59.4850001,219.924 Z M80.2670001,218.208 C80.2670001,217.479996 80.2453336,216.877669 80.2020001,216.401 C80.1586665,215.924331 80.046001,215.538668 79.8640001,215.244 C79.6819992,214.949332 79.4090019,214.732667 79.0450001,214.594 C78.6809983,214.455333 78.1870032,214.36 77.5630001,214.308 L77.5630001,213.996 C78.2910037,214.030667 78.99733,214.056667 79.6820001,214.074 C80.3666702,214.091333 81.0729964,214.1 81.8010001,214.1 C82.3730029,214.1 82.9449972,214.091333 83.5170001,214.074 C84.0890029,214.056667 84.6523306,214.030667 85.2070001,213.996 L85.2070001,214.308 C84.6003304,214.36 84.1236685,214.455333 83.7770001,214.594 C83.4303317,214.732667 83.1703343,214.949332 82.9970001,215.244 C82.8236659,215.538668 82.7153336,215.924331 82.6720001,216.401 C82.6286665,216.877669 82.6070001,217.479996 82.6070001,218.208 L82.6070001,226.892 C82.6070001,227.620004 82.6286665,228.222331 82.6720001,228.699 C82.7153336,229.175669 82.8279992,229.561332 83.0100001,229.856 C83.192001,230.150668 83.4649983,230.367333 83.8290001,230.506 C84.1930019,230.644667 84.6956635,230.74 85.3370001,230.792 L85.3370001,231.104 C84.6783301,231.069333 84.01967,231.043333 83.3610001,231.026 C82.7023301,231.008667 82.04367,231 81.3850001,231 C80.7436635,231 80.1110032,231.008667 79.4870001,231.026 C78.862997,231.043333 78.2390032,231.069333 77.6150001,231.104 L77.6150001,230.792 C78.2390032,230.74 78.7243317,230.644667 79.0710001,230.506 C79.4176685,230.367333 79.6819992,230.150668 79.8640001,229.856 C80.046001,229.561332 80.1586665,229.175669 80.2020001,228.699 C80.2453336,228.222331 80.2670001,227.620004 80.2670001,226.892 L80.2670001,222.212 L70.6210001,222.212 L70.6210001,226.892 C70.6210001,227.620004 70.6426665,228.222331 70.6860001,228.699 C70.7293336,229.175669 70.8419992,229.561332 71.0240001,229.856 C71.206001,230.150668 71.4789983,230.367333 71.8430001,230.506 C72.2070019,230.644667 72.7096635,230.74 73.3510001,230.792 L73.3510001,231.104 C72.6923301,231.069333 72.03367,231.043333 71.3750001,231.026 C70.7163301,231.008667 70.05767,231 69.3990001,231 C68.7576635,231 68.1250032,231.008667 67.5010001,231.026 C66.876997,231.043333 66.2530032,231.069333 65.6290001,231.104 L65.6290001,230.792 C66.2530032,230.74 66.7383317,230.644667 67.0850001,230.506 C67.4316685,230.367333 67.6959992,230.150668 67.8780001,229.856 C68.060001,229.561332 68.1726665,229.175669 68.2160001,228.699 C68.2593336,228.222331 68.2810001,227.620004 68.2810001,226.892 L68.2810001,218.208 C68.2810001,217.479996 68.2593336,216.877669 68.2160001,216.401 C68.1726665,215.924331 68.060001,215.538668 67.8780001,215.244 C67.6959992,214.949332 67.4230019,214.732667 67.0590001,214.594 C66.6949983,214.455333 66.2010032,214.36 65.5770001,214.308 L65.5770001,213.996 C66.3050037,214.030667 67.01133,214.056667 67.6960001,214.074 C68.3806702,214.091333 69.0869964,214.1 69.8150001,214.1 C70.3870029,214.1 70.9589972,214.091333 71.5310001,214.074 C72.1030029,214.056667 72.6663306,214.030667 73.2210001,213.996 L73.2210001,214.308 C72.6143304,214.36 72.1376685,214.455333 71.7910001,214.594 C71.4443317,214.732667 71.1843343,214.949332 71.0110001,215.244 C70.8376659,215.538668 70.7293336,215.924331 70.6860001,216.401 C70.6426665,216.877669 70.6210001,217.479996 70.6210001,218.208 L70.6210001,221.38 L80.2670001,221.38 L80.2670001,218.208 Z M90.545,230.792 C91.1690031,230.74 91.6543316,230.644667 92.001,230.506 C92.3476684,230.367333 92.6119991,230.150668 92.794,229.856 C92.9760009,229.561332 93.0886665,229.175669 93.132,228.699 C93.1753336,228.222331 93.197,227.620004 93.197,226.892 L93.197,218.208 C93.197,217.479996 93.1753336,216.877669 93.132,216.401 C93.0886665,215.924331 92.9760009,215.538668 92.794,215.244 C92.6119991,214.949332 92.3390018,214.732667 91.975,214.594 C91.6109982,214.455333 91.1170031,214.36 90.493,214.308 L90.493,213.996 C91.2210037,214.030667 91.9273299,214.056667 92.612,214.074 C93.2966701,214.091333 94.0029964,214.1 94.731,214.1 C95.3030029,214.1 95.8749972,214.091333 96.447,214.074 C97.0190029,214.056667 97.5823306,214.030667 98.137,213.996 L98.137,214.308 C97.5303303,214.36 97.0536684,214.455333 96.707,214.594 C96.3603316,214.732667 96.1003342,214.949332 95.927,215.244 C95.7536658,215.538668 95.6453336,215.924331 95.602,216.401 C95.5586665,216.877669 95.537,217.479996 95.537,218.208 L95.537,226.892 C95.537,227.620004 95.5586665,228.222331 95.602,228.699 C95.6453336,229.175669 95.7579991,229.561332 95.94,229.856 C96.1220009,230.150668 96.3949982,230.367333 96.759,230.506 C97.1230018,230.644667 97.6256635,230.74 98.267,230.792 L98.267,231.104 C97.6083301,231.069333 96.94967,231.043333 96.291,231.026 C95.6323301,231.008667 94.97367,231 94.315,231 C93.6736635,231 93.0410031,231.008667 92.417,231.026 C91.7929969,231.043333 91.1690031,231.069333 90.545,231.104 L90.545,230.792 Z M107.063,230.792 C107.687003,230.74 108.172332,230.644667 108.519,230.506 C108.865668,230.367333 109.129999,230.150668 109.312,229.856 C109.494001,229.561332 109.606666,229.175669 109.65,228.699 C109.693334,228.222331 109.715,227.620004 109.715,226.892 L109.715,214.828 C108.796329,214.828 108.029336,214.862666 107.414,214.932 C106.798664,215.001334 106.265669,215.178999 105.815,215.465 C105.364331,215.751001 104.970002,216.188664 104.632,216.778 C104.293998,217.367336 103.960335,218.173328 103.631,219.196 L103.293,219.092 L103.657,213.996 C104.385004,214.030667 105.10433,214.056667 105.815,214.074 C106.52567,214.091333 107.244996,214.1 107.973,214.1 L114.083,214.1 C114.776337,214.1 115.460997,214.091333 116.137,214.074 C116.813003,214.056667 117.497663,214.030667 118.191,213.996 L118.555,219.092 L118.217,219.196 C117.887665,218.173328 117.554002,217.367336 117.216,216.778 C116.877998,216.188664 116.483669,215.751001 116.033,215.465 C115.582331,215.178999 115.04067,215.001334 114.408,214.932 C113.77533,214.862666 112.991005,214.828 112.055,214.828 L112.055,226.892 C112.055,227.620004 112.076666,228.222331 112.12,228.699 C112.163334,229.175669 112.275999,229.561332 112.458,229.856 C112.640001,230.150668 112.912998,230.367333 113.277,230.506 C113.641002,230.644667 114.143663,230.74 114.785,230.792 L114.785,231.104 C114.12633,231.069333 113.46767,231.043333 112.809,231.026 C112.15033,231.008667 111.49167,231 110.833,231 C110.191663,231 109.559003,231.008667 108.935,231.026 C108.310997,231.043333 107.687003,231.069333 107.063,231.104 L107.063,230.792 Z M128.365,229.986 C128.521001,230.020667 128.711665,230.055333 128.937,230.09 C129.162334,230.124667 129.404999,230.159333 129.665,230.194 C129.925001,230.228667 130.193665,230.259 130.471,230.285 C130.748335,230.311 131.008332,230.324 131.251,230.324 C132.291005,230.324 133.222662,230.237334 134.046,230.064 C134.869337,229.890666 135.62333,229.613335 136.308,229.232 C136.99267,228.850665 137.63833,228.365336 138.245,227.776 C138.85167,227.186664 139.466997,226.476004 140.091,225.644 L140.377,225.878 L138.011,231.104 C137.716332,231.069333 137.413001,231.043333 137.101,231.026 C136.788998,231.008667 136.485668,231 136.191,231 L126.415,231 C125.912331,231 125.409669,231.008667 124.907,231.026 C124.404331,231.043333 123.901669,231.069333 123.399,231.104 L123.399,230.792 C124.023003,230.74 124.508332,230.644667 124.855,230.506 C125.201668,230.367333 125.461666,230.150668 125.635,229.856 C125.808334,229.561332 125.916666,229.175669 125.96,228.699 C126.003333,228.222331 126.025,227.620004 126.025,226.892 L126.025,218.208 C126.025,217.479996 126.003333,216.877669 125.96,216.401 C125.916666,215.924331 125.808334,215.538668 125.635,215.244 C125.461666,214.949332 125.193002,214.732667 124.829,214.594 C124.464998,214.455333 123.971003,214.36 123.347,214.308 L123.347,213.996 C123.936336,214.013333 124.495331,214.030667 125.024,214.048 C125.552669,214.065333 126.098664,214.078333 126.662,214.087 C127.225336,214.095667 127.82333,214.1 128.456,214.1 L130.601,214.1 C131.814339,214.1 133.027661,214.091333 134.241,214.074 C135.454339,214.056667 136.684994,214.030667 137.933,213.996 C137.915667,214.186668 137.902667,214.377332 137.894,214.568 C137.885333,214.758668 137.881,214.940666 137.881,215.114 L137.881,216.154 C137.881,216.535335 137.898333,216.920998 137.933,217.311 C137.967667,217.701002 138.002333,218.129998 138.037,218.598 L137.699,218.702 C137.473665,217.869996 137.174668,217.189669 136.802,216.661 C136.429331,216.132331 135.996002,215.720668 135.502,215.426 C135.007997,215.131332 134.466336,214.932001 133.877,214.828 C133.287664,214.723999 132.66367,214.672 132.005,214.672 C130.791661,214.672 129.578339,214.723999 128.365,214.828 L128.365,221.328 C128.711668,221.328 129.045332,221.319333 129.366,221.302 C129.686668,221.284667 130.020332,221.276 130.367,221.276 C131.563006,221.276 132.511996,221.037669 133.214,220.561 C133.916003,220.084331 134.344999,219.21334 134.501,217.948 L134.813,217.948 C134.813,218.572003 134.804333,219.195997 134.787,219.82 C134.769667,220.444003 134.761,221.05933 134.761,221.666 C134.761,222.290003 134.769667,222.913997 134.787,223.538 C134.804333,224.162003 134.813,224.785997 134.813,225.41 L134.501,225.41 C134.344999,224.681996 134.154334,224.088336 133.929,223.629 C133.703665,223.169664 133.422002,222.818668 133.084,222.576 C132.745998,222.333332 132.325669,222.168667 131.823,222.082 C131.320331,221.995333 130.722337,221.952 130.029,221.952 L128.365,221.952 L128.365,229.986 Z M159.469,219.924 C159.243665,219.143996 158.944668,218.42467 158.572,217.766 C158.199331,217.10733 157.757336,216.535336 157.246,216.05 C156.734664,215.564664 156.145337,215.187668 155.478,214.919 C154.810663,214.650332 154.061004,214.516 153.229,214.516 C152.154328,214.516 151.244337,214.723998 150.499,215.14 C149.753663,215.556002 149.142669,216.11933 148.666,216.83 C148.189331,217.54067 147.842668,218.363995 147.626,219.3 C147.409332,220.236005 147.301,221.223995 147.301,222.264 C147.301,223.304005 147.439665,224.296329 147.717,225.241 C147.994335,226.185671 148.405997,227.01333 148.952,227.724 C149.498003,228.43467 150.182662,229.002331 151.006,229.427 C151.829337,229.851669 152.778328,230.064 153.853,230.064 C155.465008,230.064 156.855994,229.656671 158.026,228.842 C159.196006,228.027329 160.231662,226.918007 161.133,225.514 L161.783,226.034 C161.193664,226.918004 160.604336,227.697997 160.015,228.374 C159.425664,229.050003 158.784337,229.621998 158.091,230.09 C157.397663,230.558002 156.643671,230.913332 155.829,231.156 C155.014329,231.398668 154.095672,231.52 153.073,231.52 C151.911661,231.52 150.811005,231.299002 149.771,230.857 C148.730995,230.414998 147.821004,229.799671 147.041,229.011 C146.260996,228.222329 145.641336,227.277672 145.182,226.177 C144.722664,225.076328 144.493,223.86734 144.493,222.55 C144.493,221.23266 144.722664,220.023672 145.182,218.923 C145.641336,217.822328 146.260996,216.877671 147.041,216.089 C147.821004,215.300329 148.730995,214.685002 149.771,214.243 C150.811005,213.800998 151.911661,213.58 153.073,213.58 C153.714336,213.58 154.31233,213.619 154.867,213.697 C155.421669,213.775 155.954664,213.857333 156.466,213.944 C156.977336,214.030667 157.471331,214.117333 157.948,214.204 C158.424669,214.290667 158.896998,214.342667 159.365,214.36 C159.365,214.724002 159.378,215.148664 159.404,215.634 C159.43,216.119336 159.469,216.617664 159.521,217.129 C159.573,217.640336 159.625,218.142998 159.677,218.637 C159.729,219.131002 159.781,219.559998 159.833,219.924 L159.469,219.924 Z M169.175,230.792 C169.799003,230.74 170.284331,230.644667 170.631,230.506 C170.977668,230.367333 171.241999,230.150668 171.424,229.856 C171.606001,229.561332 171.718666,229.175669 171.762,228.699 C171.805333,228.222331 171.827,227.620004 171.827,226.892 L171.827,214.828 C170.908329,214.828 170.141336,214.862666 169.526,214.932 C168.910663,215.001334 168.377669,215.178999 167.927,215.465 C167.476331,215.751001 167.082002,216.188664 166.744,216.778 C166.405998,217.367336 166.072335,218.173328 165.743,219.196 L165.405,219.092 L165.769,213.996 C166.497003,214.030667 167.21633,214.056667 167.927,214.074 C168.63767,214.091333 169.356996,214.1 170.085,214.1 L176.195,214.1 C176.888337,214.1 177.572996,214.091333 178.249,214.074 C178.925003,214.056667 179.609663,214.030667 180.303,213.996 L180.667,219.092 L180.329,219.196 C179.999665,218.173328 179.666002,217.367336 179.328,216.778 C178.989998,216.188664 178.595669,215.751001 178.145,215.465 C177.694331,215.178999 177.15267,215.001334 176.52,214.932 C175.88733,214.862666 175.103005,214.828 174.167,214.828 L174.167,226.892 C174.167,227.620004 174.188666,228.222331 174.232,228.699 C174.275333,229.175669 174.387999,229.561332 174.57,229.856 C174.752001,230.150668 175.024998,230.367333 175.389,230.506 C175.753002,230.644667 176.255663,230.74 176.897,230.792 L176.897,231.104 C176.23833,231.069333 175.57967,231.043333 174.921,231.026 C174.26233,231.008667 173.60367,231 172.945,231 C172.303663,231 171.671003,231.008667 171.047,231.026 C170.422997,231.043333 169.799003,231.069333 169.175,231.104 L169.175,230.792 Z M197.263,218.936 C197.037665,218.381331 196.747335,217.831003 196.392,217.285 C196.036665,216.738997 195.625002,216.253669 195.157,215.829 C194.688997,215.404331 194.169003,215.062001 193.597,214.802 C193.024997,214.541999 192.401003,214.412 191.725,214.412 C190.736995,214.412 189.92667,214.593998 189.294,214.958 C188.66133,215.322002 188.345,215.971995 188.345,216.908 C188.345,217.462669 188.487998,217.943665 188.774,218.351 C189.060001,218.758335 189.441331,219.117998 189.918,219.43 C190.394669,219.742002 190.93633,220.027999 191.543,220.288 C192.149669,220.548001 192.76933,220.812332 193.402,221.081 C194.03467,221.349668 194.65433,221.639998 195.261,221.952 C195.867669,222.264002 196.409331,222.636664 196.886,223.07 C197.362669,223.503335 197.743998,224.005997 198.03,224.578 C198.316001,225.150003 198.459,225.834663 198.459,226.632 C198.459,227.481338 198.303001,228.213664 197.991,228.829 C197.678998,229.444336 197.258669,229.951331 196.73,230.35 C196.20133,230.748669 195.586003,231.043332 194.884,231.234 C194.181996,231.424668 193.432337,231.52 192.635,231.52 C192.201664,231.52 191.751002,231.481 191.283,231.403 C190.814997,231.325 190.364335,231.238334 189.931,231.143 C189.497664,231.047666 189.103335,230.961 188.748,230.883 C188.392665,230.805 188.111001,230.766 187.903,230.766 C187.712332,230.766 187.530334,230.796333 187.357,230.857 C187.183666,230.917667 187.001667,230.982666 186.811,231.052 C186.654999,230.063995 186.473001,229.097671 186.265,228.153 C186.056999,227.208329 185.840334,226.242005 185.615,225.254 L185.953,225.072 C186.265001,225.67867 186.641998,226.31133 187.084,226.97 C187.526002,227.62867 188.02433,228.230997 188.579,228.777 C189.133669,229.323003 189.744663,229.777998 190.412,230.142 C191.079336,230.506002 191.802996,230.688 192.583,230.688 C193.085669,230.688 193.570997,230.631667 194.039,230.519 C194.507002,230.406333 194.918665,230.228668 195.274,229.986 C195.629335,229.743332 195.910999,229.427002 196.119,229.037 C196.327001,228.646998 196.431,228.166003 196.431,227.594 C196.431,226.779329 196.179669,226.099003 195.677,225.553 C195.174331,225.006997 194.550337,224.530335 193.805,224.123 C193.059663,223.715665 192.249337,223.338668 191.374,222.992 C190.498662,222.645332 189.688337,222.255336 188.943,221.822 C188.197663,221.388665 187.573669,220.877336 187.071,220.288 C186.568331,219.698664 186.317,218.953338 186.317,218.052 C186.317,217.375997 186.446998,216.760669 186.707,216.206 C186.967001,215.651331 187.317998,215.179002 187.76,214.789 C188.202002,214.398998 188.71333,214.100001 189.294,213.892 C189.874669,213.683999 190.49433,213.58 191.153,213.58 C191.794336,213.58 192.370664,213.623333 192.882,213.71 C193.393336,213.796667 193.891664,213.891999 194.377,213.996 C194.879669,214.100001 195.373664,214.199666 195.859,214.295 C196.344336,214.390334 196.86433,214.438 197.419,214.438 C197.419,215.218004 197.432,215.97633 197.458,216.713 C197.484,217.44967 197.540333,218.190663 197.627,218.936 L197.263,218.936 Z" id="ARCHITECTS" class="architects" sketch:type="MSShapeGroup"></path>
        </g>
    </g>
</svg>
